# xmcd
#
# Track frame offsets:
#	150
#	23477
#	48345
#	77140
#	100010
#	114177
#	136970
#	159409
#	179352
#	193234
#	212375
#
# Disc length: 3283 seconds
#
# Revision: 0
# Processed by: cddbd v1.5.1PL0 Copyright (c) Steve Scherf et al.
# Submitted via: audiograbber 1.83.01
#
DISCID=820cd10b
DTITLE=Phyllis Hyman - The Classic Balladry of Phyllis Hyman
DYEAR=1900
DGENRE=Jazz
TTITLE0=The Answer Is You
TTITLE1=I Don't Want To Lose You
TTITLE2=Betcha By Golly, Wow
TTITLE3=Can't We Fall In Love Again
TTITLE4=Sounds Like A Love Song
TTITLE5=Gonna Make Changes
TTITLE6=Was Yesterday Such  a Long Time Ago
TTITLE7=No One Can Love You More
TTITLE8=Here's That Rainy Day
TTITLE9=Be Careful (How You Treat My Love)
TTITLE10=Loving You, Losing You
EXTD=
EXTT0=
EXTT1=
EXTT2=
EXTT3=
EXTT4=
EXTT5=
EXTT6=
EXTT7=
EXTT8=
EXTT9=
EXTT10=
PLAYORDER=
